<svg t="1685756517601" class="icon" viewBox="0 0 1024 1024" version="1.1" xmlns="http://www.w3.org/2000/svg" p-id="19696" width="200" height="200"><path d="M512 938.666667c-192 0-384-257.28-384-469.333334a384 384 0 1 1 768 0c0 212.053333-192 469.333333-384 469.333334z m0-85.333334c133.973333 0 298.666667-207.744 298.666667-384A298.666667 298.666667 0 0 0 213.333333 469.333333c0 176.256 164.693333 384 298.666667 384z m-84.224-178.346666c-22.570667 8.192-99.797333-24.704-123.946667-91.136-24.192-66.432 14.805333-141.610667 36.394667-149.461334 21.589333-7.850667 99.797333 24.661333 123.946667 91.093334 24.192 66.432-13.824 141.226667-36.394667 149.461333z m168.448 0c-22.570667-8.234667-60.586667-83.072-36.394667-149.504 24.149333-66.432 102.357333-98.986667 123.946667-91.093334 21.589333 7.850667 60.586667 83.029333 36.394667 149.461334-24.149333 66.432-101.376 99.328-123.946667 91.093333z" p-id="19697"></path></svg>